<?xml version="1.0" encoding="UTF-8"?>
<svg id="Layer_6" data-name="Layer 6" xmlns="http://www.w3.org/2000/svg" viewBox="0 0 734 296">
  <g>
    <path d="M296.58,149.32c0-36.93,25.94-67.88,62.06-67.88,22.15,0,40.71,11.58,49.29,32.74l-14.57,8.58c-6.79-17.77-20.15-25.95-35.92-25.95-25.54,0-42.1,21.56-42.1,52.51s16.56,52.51,42.1,52.51c15.76,0,29.13-8.18,35.92-25.95l14.57,8.58c-8.58,21.16-27.14,32.74-49.29,32.74-36.12,0-62.06-30.95-62.06-67.88Z" fill="#29a3dc" stroke-width="0"/>
    <path d="M422.88,172.28c0-23.96,20.75-44.92,44.5-44.92s44.5,20.96,44.5,44.92-20.75,44.92-44.5,44.92-44.5-20.96-44.5-44.92ZM495.11,172.28c0-18.17-12.17-30.95-27.74-30.95s-27.74,12.78-27.74,30.95,12.17,30.95,27.74,30.95,27.74-12.78,27.74-30.95Z" fill="#29a3dc" stroke-width="0"/>
    <path d="M529.83,172.28c0-24.36,19.36-44.92,40.71-44.92,14.96,0,26.14,9.38,31.13,21.56v-65.48h5.39c5.99,0,8.58-.2,10.97-1.2v132.96h-16.36v-19.57c-4.99,12.18-16.16,21.56-31.13,21.56-21.35,0-40.71-20.56-40.71-44.92ZM602.26,172.28c0-18.17-13.77-30.95-27.54-30.95-15.56,0-28.14,12.78-28.14,30.95s12.57,30.95,28.14,30.95c13.77,0,27.54-12.78,27.54-30.95Z" fill="#29a3dc" stroke-width="0"/>
    <path d="M649.15,129.35h5.39c5.99,0,8.58-.2,10.98-1.2v19.37c4.59-13.78,14.37-20.16,26.14-20.16,10.78,0,18.16,5.19,22.15,15.97l-13.17,8.79c-3.59-7.39-7.18-10.78-14.17-10.78-11.97,0-20.95,9.78-20.95,27.55v46.32h-16.36v-85.85Z" fill="#29a3dc" stroke-width="0"/>
  </g>
  <g>
    <circle cx="148" cy="148" r="128" fill="#29a3dc" stroke-width="0"/>
    <g>
      <path d="M191.19,94l48.29,48c4.45,4.42,4.45,11.58,0,16l-48.29,48" fill="none" stroke="#fff" stroke-linecap="round" stroke-miterlimit="10" stroke-width="16"/>
      <path d="M104.81,206l-48.29-48c-4.45-4.42-4.45-11.58,0-16l48.29-48" fill="none" stroke="#fff" stroke-linecap="round" stroke-miterlimit="10" stroke-width="16"/>
      <line x1="133.5" y1="206" x2="162.5" y2="94" fill="none" stroke="#fff" stroke-linecap="round" stroke-miterlimit="10" stroke-width="16"/>
    </g>
  </g>
</svg>